HIERARCHY
ROOT root
{
	OFFSET 0.000000 0.000000 0.000000
	CHANNELS 6 Xposition Yposition Zposition Zrotation Yrotation Xrotation
	JOINT lhip
	{
		OFFSET 0.058581 -0.082280 -0.017664
		CHANNELS 3 Zrotation Yrotation Xrotation
		JOINT lknee
		{
			OFFSET 0.043451 -0.386469 0.008037
			CHANNELS 3 Zrotation Yrotation Xrotation
			JOINT lankle
			{
				OFFSET -0.014790 -0.426874 -0.037428
				CHANNELS 3 Zrotation Yrotation Xrotation
				JOINT ltoe
				{
					OFFSET 0.041054 -0.060286 0.122042
					CHANNELS 3 Zrotation Yrotation Xrotation
					End Site
					{
						OFFSET 0.000000 0.000000 0.000000
					}
				}
			}
		}
	}
	JOINT rhip
	{
		OFFSET -0.060310 -0.090513 -0.013543
		CHANNELS 3 Zrotation Yrotation Xrotation
		JOINT rknee
		{
			OFFSET -0.043257 -0.383688 -0.004843
			CHANNELS 3 Zrotation Yrotation Xrotation
			JOINT rankle
			{
				OFFSET 0.019056 -0.420046 -0.034562
				CHANNELS 3 Zrotation Yrotation Xrotation
				JOINT rtoe
				{
					OFFSET -0.034840 -0.062106 0.130323
					CHANNELS 3 Zrotation Yrotation Xrotation
					End Site
					{
						OFFSET 0.000000 0.000000 0.000000
					}
				}
			}
		}
	}
	JOINT lowerback
	{
		OFFSET 0.004439 0.124404 -0.038385
		CHANNELS 3 Zrotation Yrotation Xrotation
		JOINT upperback
		{
			OFFSET 0.004488 0.137956 0.026820
			CHANNELS 3 Zrotation Yrotation Xrotation
			JOINT chest
			{
				OFFSET -0.002265 0.056032 0.002855
				CHANNELS 3 Zrotation Yrotation Xrotation
				JOINT lowerneck
				{
					OFFSET -0.013390 0.211636 -0.033468
					CHANNELS 3 Zrotation Yrotation Xrotation
					JOINT upperneck
					{
						OFFSET 0.010113 0.088937 0.050410
						CHANNELS 3 Zrotation Yrotation Xrotation
						End Site
						{
							OFFSET 0.000000 0.000000 0.000000
						}
					}
				}
				JOINT lclavicle
				{
					OFFSET 0.071702 0.114000 -0.018898
					CHANNELS 3 Zrotation Yrotation Xrotation
					JOINT lshoulder
					{
						OFFSET 0.122921 0.045205 -0.019046
						CHANNELS 3 Zrotation Yrotation Xrotation
						JOINT lelbow
						{
							OFFSET 0.255332 -0.015649 -0.022946
							CHANNELS 3 Zrotation Yrotation Xrotation
							JOINT lwrist
							{
								OFFSET 0.265709 0.012698 -0.007375
								CHANNELS 3 Zrotation Yrotation Xrotation
								End Site
								{
									OFFSET 0.000000 0.000000 0.000000
								}
							}
						}
					}
				}
				JOINT rclavicle
				{
					OFFSET -0.082954 0.112472 -0.023707
					CHANNELS 3 Zrotation Yrotation Xrotation
					JOINT rshoulder
					{
						OFFSET -0.113228 0.046853 -0.008472
						CHANNELS 3 Zrotation Yrotation Xrotation
						JOINT relbow
						{
							OFFSET -0.260127 -0.014369 -0.031269
							CHANNELS 3 Zrotation Yrotation Xrotation
							JOINT rwrist
							{
								OFFSET -0.269108 0.006794 -0.006027
								CHANNELS 3 Zrotation Yrotation Xrotation
								End Site
								{
									OFFSET 0.000000 0.000000 0.000000
								}
							}
						}
					}
				}
			}
		}
	}
}
MOTION
Frames: 7
Frame Time: 0.033333
1.143089 0.174663 1.127147 -85.223250 2.857338 86.758489 0.135618 1.179101 7.639915 -2.999037 -14.315975 0.656337 6.577894 8.208338 -15.375938 0.000000 -0.000000 0.000000 3.518995 -0.931337 4.802850 4.260966 2.660680 6.102186 3.020735 -4.097430 -10.666489 0.000000 -0.000000 0.000000 -2.323793 0.309509 4.655712 2.331282 -3.524051 2.589137 1.069055 -2.559935 4.986262 5.616179 -2.697831 4.445775 3.080117 -5.791956 7.188968 -26.186490 7.557130 2.795703 -59.665695 -6.064716 6.615054 9.798400 -24.453577 2.963220 -3.541376 -0.175379 -8.978495 24.009044 -5.514955 -0.520154 60.775021 1.503205 10.005239 -14.267793 23.665969 -5.464458 8.030588 -1.208899 -10.265047 
1.141464 0.174599 1.127356 -84.802804 3.209210 86.404196 0.726017 1.343200 8.200662 -3.150691 -14.601696 0.491846 6.197950 7.838255 -15.279342 0.000000 -0.000000 0.000000 4.010681 -1.651146 5.528697 4.054399 3.011344 5.688132 2.928386 -4.259229 -10.759287 0.000000 -0.000000 0.000000 -2.104774 -0.004592 4.594080 2.344037 -3.666217 2.955894 1.100341 -2.626750 5.068146 5.643791 -2.443885 4.028876 2.991397 -5.745828 7.157188 -26.064555 7.614939 2.794735 -59.803665 -5.996312 6.631901 9.946621 -24.402713 3.061230 -3.430145 -0.322059 -9.304415 24.006950 -5.460484 -0.607179 60.837218 1.459553 10.068891 -14.275634 23.687733 -5.309608 7.775769 -1.338644 -10.368363 
1.141634 0.174280 1.127319 -84.891193 3.204051 86.386465 0.674775 1.356597 8.310708 -3.105299 -14.643738 0.347732 6.142637 7.905689 -15.332493 0.000000 -0.000000 0.000000 4.071747 -1.354636 5.562996 3.960493 2.917754 5.633548 2.920271 -4.371489 -10.780129 0.000000 -0.000000 0.000000 -2.162569 -0.004050 4.478865 2.335899 -3.660960 3.001285 1.106431 -2.649422 5.176029 5.648370 -2.516985 4.294136 3.085336 -5.743493 6.950392 -25.943052 7.632592 2.878858 -59.955929 -5.939382 6.670567 10.128608 -24.338479 3.161716 -3.511307 -0.257745 -9.497894 23.963175 -5.402876 -0.563579 60.873796 1.626513 10.064876 -14.141628 23.570109 -5.202385 7.818286 -1.292392 -10.421749 
1.141863 0.174012 1.127227 -84.914001 3.242517 86.393940 0.697323 1.346710 8.342788 -3.108917 -14.655445 0.300295 6.168926 7.872676 -15.270537 0.000000 -0.000000 0.000000 4.082748 -1.429082 5.540825 3.954880 3.036719 5.634887 2.912874 -4.334893 -10.812011 0.000000 -0.000000 0.000000 -2.119592 -0.042273 4.477723 2.325440 -3.652933 2.999273 1.086312 -2.626884 5.138296 5.629133 -2.388229 3.981312 2.952120 -5.721144 7.153560 -25.996974 7.653671 2.822775 -59.903827 -5.859879 6.620775 10.231464 -24.137823 2.893610 -3.899228 -0.760211 -10.022822 24.093219 -5.453719 -0.538672 60.804026 1.667099 10.114627 -14.221475 23.545481 -5.280260 7.872976 -1.218231 -10.521188 
1.142019 0.173909 1.127161 -84.917897 3.265223 86.343978 0.702637 1.441953 8.374863 -3.087514 -14.776401 0.337584 6.164472 7.901410 -15.289705 0.000000 -0.000000 0.000000 4.098666 -1.429689 5.546000 3.947512 2.953155 5.701125 2.936535 -4.316668 -10.881242 0.000000 -0.000000 0.000000 -2.146555 -0.061110 4.565425 2.342292 -3.670669 2.930127 1.123945 -2.616987 5.133425 5.734479 -2.597629 4.206469 2.996141 -5.865115 7.157526 -26.052461 7.676006 2.816538 -59.846805 -5.833911 6.550032 10.110472 -24.003330 2.920132 -3.791377 -0.308552 -9.576484 24.006095 -5.471210 -0.578482 60.903645 1.649231 10.017530 -14.227821 23.541243 -5.314372 7.975354 -1.364448 -10.374709 
1.142394 0.173740 1.127261 -84.918814 3.288672 86.294406 0.678388 1.430750 8.375263 -3.078192 -14.838161 0.427839 6.172372 7.964427 -15.343881 0.000000 -0.000000 0.000000 4.152746 -1.243582 5.547768 3.924592 2.927126 5.750198 2.894128 -4.480784 -10.992586 0.000000 -0.000000 0.000000 -2.126320 -0.128971 4.606147 2.310858 -3.629659 2.891598 1.113455 -2.608913 5.194346 5.686971 -2.506145 3.872968 2.966689 -5.889296 7.183787 -26.156006 7.648104 2.736015 -59.724136 -5.833928 6.527008 10.040823 -23.779941 2.791439 -3.753020 -0.221959 -9.513887 24.178513 -5.400982 -0.645654 60.778570 1.604112 10.077742 -14.301096 23.462397 -5.441708 7.895129 -1.312147 -10.328928 
1.142730 0.173707 1.127195 -84.979408 3.334063 86.258409 0.666311 1.262865 8.404962 -3.022063 -14.828621 0.411987 6.204887 8.123803 -15.452679 0.000000 -0.000000 0.000000 4.206204 -1.332559 5.484531 3.895973 3.013159 5.878138 2.924601 -4.427551 -11.056623 0.000000 -0.000000 0.000000 -2.072983 -0.105169 4.656406 2.280802 -3.618504 2.854298 1.071324 -2.626473 5.232222 5.565491 -2.083080 3.835802 2.871936 -5.677897 7.358314 -26.116846 7.634830 2.598576 -59.757364 -5.745873 6.581666 10.011988 -23.472534 2.832234 -3.712789 -0.488042 -9.447353 24.217693 -5.476645 -0.670193 60.803055 1.658287 10.161635 -14.311086 23.427048 -5.401365 7.882836 -1.165677 -10.390526 
